<?xml version="1.0" encoding="UTF-8" standalone="no"?>
<svg
   xmlns:dc="http://purl.org/dc/elements/1.1/"
   xmlns:cc="http://creativecommons.org/ns#"
   xmlns:rdf="http://www.w3.org/1999/02/22-rdf-syntax-ns#"
   xmlns:svg="http://www.w3.org/2000/svg"
   xmlns="http://www.w3.org/2000/svg"
   xmlns:sodipodi="http://sodipodi.sourceforge.net/DTD/sodipodi-0.dtd"
   xmlns:inkscape="http://www.inkscape.org/namespaces/inkscape"
   version="1.1"
   width="76"
   height="76"
   viewBox="0 0 76.00 76.00"
   enable-background="new 0 0 76.00 76.00"
   xml:space="preserve"
   id="svg2"
   inkscape:version="0.48.4 r9939"
   sodipodi:docname="appbar.slice.svg"><metadata
   id="metadata10"><rdf:RDF><cc:Work
       rdf:about=""><dc:format>image/svg+xml</dc:format><dc:type
         rdf:resource="http://purl.org/dc/dcmitype/StillImage" /><dc:title></dc:title></cc:Work></rdf:RDF></metadata><defs
   id="defs8" /><sodipodi:namedview
   pagecolor="#ffffff"
   bordercolor="#666666"
   borderopacity="1"
   objecttolerance="10"
   gridtolerance="10"
   guidetolerance="10"
   inkscape:pageopacity="0"
   inkscape:pageshadow="2"
   inkscape:window-width="640"
   inkscape:window-height="480"
   id="namedview6"
   showgrid="false"
   inkscape:zoom="3.1052632"
   inkscape:cx="38"
   inkscape:cy="38"
   inkscape:window-x="0"
   inkscape:window-y="0"
   inkscape:window-maximized="0"
   inkscape:current-layer="svg2" />
	<path
   fill="#000000"
   fill-opacity="1"
   stroke-width="0.2"
   stroke-linejoin="round"
   d="M 34.6742,38L 39.5833,42.9091L 39.5833,48.7651L 17.4167,55.4167L 34.6742,38 Z M 49.1629,19L 50.7352,20.5856L 38,33.25L 38,36.4167L 41.1667,39.5833L 44.3333,39.5833L 57.0067,26.91L 58.5833,28.5L 44.3333,42.75L 41.1667,42.75L 34.8333,36.4167L 34.8333,33.25L 49.1629,19 Z M 38.227,34.5054L 53.9012,18.8312L 55.0208,19.9508L 39.3466,35.625L 38.227,34.5054 Z M 41.5625,38.2367L 57.2367,22.5625L 58.3563,23.6821L 42.6821,39.3563L 41.5625,38.2367 Z M 39.5833,36.8804L 55.2575,21.2062L 56.3771,22.3258L 40.7029,38L 39.5833,36.8804 Z "
   id="path4" />
</svg>