<?xml version="1.0" encoding="UTF-8" standalone="no"?>
<svg
   xmlns:dc="http://purl.org/dc/elements/1.1/"
   xmlns:cc="http://creativecommons.org/ns#"
   xmlns:rdf="http://www.w3.org/1999/02/22-rdf-syntax-ns#"
   xmlns:svg="http://www.w3.org/2000/svg"
   xmlns="http://www.w3.org/2000/svg"
   xmlns:sodipodi="http://sodipodi.sourceforge.net/DTD/sodipodi-0.dtd"
   xmlns:inkscape="http://www.inkscape.org/namespaces/inkscape"
   version="1.1"
   width="76.0106"
   height="76.0106"
   viewBox="0 0 76.01 76.01"
   enable-background="new 0 0 76.01 76.01"
   xml:space="preserve"
   id="svg2"
   inkscape:version="0.48.4 r9939"
   sodipodi:docname="appbar.flag.wavy.svg"><metadata
   id="metadata10"><rdf:RDF><cc:Work
       rdf:about=""><dc:format>image/svg+xml</dc:format><dc:type
         rdf:resource="http://purl.org/dc/dcmitype/StillImage" /><dc:title></dc:title></cc:Work></rdf:RDF></metadata><defs
   id="defs8" /><sodipodi:namedview
   pagecolor="#ffffff"
   bordercolor="#666666"
   borderopacity="1"
   objecttolerance="10"
   gridtolerance="10"
   guidetolerance="10"
   inkscape:pageopacity="0"
   inkscape:pageshadow="2"
   inkscape:window-width="640"
   inkscape:window-height="480"
   id="namedview6"
   showgrid="false"
   inkscape:zoom="3.1048302"
   inkscape:cx="38.005299"
   inkscape:cy="38.005299"
   inkscape:window-x="0"
   inkscape:window-y="0"
   inkscape:window-maximized="0"
   inkscape:current-layer="svg2" />
	<path
   fill="#000000"
   fill-opacity="1"
   stroke-width="0.2"
   stroke-linejoin="round"
   d="M 26.9204,19.0027L 28.504,19.0027C 29.3785,19.0027 30.0875,19.7116 30.0875,20.5862L 30.0875,55.4244C 30.0875,56.299 29.3785,57.008 28.504,57.008L 26.9204,57.008C 26.0459,57.008 25.3369,56.299 25.3369,55.4244L 25.3369,20.5862C 25.3369,19.7116 26.0459,19.0027 26.9204,19.0027 Z M 31.6711,23.7533C 33.2546,22.6976 34.8382,21.6419 37.4775,21.9059C 40.1167,22.1698 43.8117,23.7535 46.7148,23.7535C 49.618,23.7535 51.7294,22.1698 53.8408,20.5862L 53.8408,34.838C 51.7294,36.4216 49.618,38.0052 46.7148,38.0052C 43.8117,38.0052 40.1167,36.4216 37.4775,36.1576C 34.8382,35.8937 33.2546,36.9494 31.6711,38.0051L 31.6711,23.7533 Z "
   id="path4" />
</svg>