<?xml version="1.0" encoding="UTF-8" standalone="no"?>
<svg
   xmlns:dc="http://purl.org/dc/elements/1.1/"
   xmlns:cc="http://creativecommons.org/ns#"
   xmlns:rdf="http://www.w3.org/1999/02/22-rdf-syntax-ns#"
   xmlns:svg="http://www.w3.org/2000/svg"
   xmlns="http://www.w3.org/2000/svg"
   xmlns:sodipodi="http://sodipodi.sourceforge.net/DTD/sodipodi-0.dtd"
   xmlns:inkscape="http://www.inkscape.org/namespaces/inkscape"
   version="1.1"
   width="76"
   height="76"
   viewBox="0 0 76.00 76.00"
   enable-background="new 0 0 76.00 76.00"
   xml:space="preserve"
   id="svg2"
   inkscape:version="0.48.4 r9939"
   sodipodi:docname="appbar.page.edit.svg"><metadata
   id="metadata10"><rdf:RDF><cc:Work
       rdf:about=""><dc:format>image/svg+xml</dc:format><dc:type
         rdf:resource="http://purl.org/dc/dcmitype/StillImage" /><dc:title></dc:title></cc:Work></rdf:RDF></metadata><defs
   id="defs8" /><sodipodi:namedview
   pagecolor="#ffffff"
   bordercolor="#666666"
   borderopacity="1"
   objecttolerance="10"
   gridtolerance="10"
   guidetolerance="10"
   inkscape:pageopacity="0"
   inkscape:pageshadow="2"
   inkscape:window-width="640"
   inkscape:window-height="480"
   id="namedview6"
   showgrid="false"
   inkscape:zoom="3.1052632"
   inkscape:cx="38"
   inkscape:cy="38"
   inkscape:window-x="0"
   inkscape:window-y="0"
   inkscape:window-maximized="0"
   inkscape:current-layer="svg2" />
	<path
   fill="#000000"
   fill-opacity="1"
   stroke-width="0.2"
   stroke-linejoin="round"
   d="M 48,30L 55.75,30L 48,22.25L 48,30 Z M 57,33L 44,33L 44,21L 29,21L 29,31.25L 25,27.25L 25,17L 48.25,17L 61,29.75L 61,59L 25,59L 25,41.75L 29,45.75L 29,55L 57,55L 57,33 Z M 24.5417,28.5L 39.5833,43.5417L 34.0417,49.0833L 19,34.0417L 24.5417,28.5 Z M 17.8125,32.8542L 14.6458,30.314C 13.6303,29.2984 14.0262,27.1405 15.0417,26.125L 16.625,24.5417C 17.6405,23.5262 19.5678,23.1303 20.5833,24.1459L 23.3541,27.3126L 17.8125,32.8542 Z M 41.9715,52.25L 35.2292,50.2709L 40.7708,44.7292L 42.6216,51.5999L 41.9715,52.25 Z "
   id="path4" />
</svg>