<?xml version="1.0" encoding="UTF-8" standalone="no"?>
<svg
   xmlns:dc="http://purl.org/dc/elements/1.1/"
   xmlns:cc="http://creativecommons.org/ns#"
   xmlns:rdf="http://www.w3.org/1999/02/22-rdf-syntax-ns#"
   xmlns:svg="http://www.w3.org/2000/svg"
   xmlns="http://www.w3.org/2000/svg"
   xmlns:xlink="http://www.w3.org/1999/xlink"
   xmlns:sodipodi="http://sodipodi.sourceforge.net/DTD/sodipodi-0.dtd"
   xmlns:inkscape="http://www.inkscape.org/namespaces/inkscape"
   version="1.1"
   width="76"
   height="76"
   viewBox="0 0 76.00 76.00"
   enable-background="new 0 0 76.00 76.00"
   xml:space="preserve"
   id="svg2"
   inkscape:version="0.48.4 r9939"
   sodipodi:docname="appbar.smiley.happy.svg"><metadata
   id="metadata10"><rdf:RDF><cc:Work
       rdf:about=""><dc:format>image/svg+xml</dc:format><dc:type
         rdf:resource="http://purl.org/dc/dcmitype/StillImage" /><dc:title></dc:title></cc:Work></rdf:RDF></metadata><defs
   id="defs8"><linearGradient
     inkscape:collect="always"
     id="linearGradient3757"><stop
       style="stop-color:#8a05ff;stop-opacity:0;"
       offset="0"
       id="stop3759" /><stop
       style="stop-color:#8a05ff;stop-opacity:1;"
       offset="1"
       id="stop3761" /></linearGradient><radialGradient
     inkscape:collect="always"
     xlink:href="#linearGradient3757"
     id="radialGradient3773"
     cx="38.161018"
     cy="39.127121"
     fx="38.161018"
     fy="39.127121"
     r="29.466103"
     gradientUnits="userSpaceOnUse" /></defs><sodipodi:namedview
   pagecolor="#ffffff"
   bordercolor="#666666"
   borderopacity="1"
   objecttolerance="10"
   gridtolerance="10"
   guidetolerance="10"
   inkscape:pageopacity="0"
   inkscape:pageshadow="2"
   inkscape:window-width="1042"
   inkscape:window-height="872"
   id="namedview6"
   showgrid="false"
   inkscape:zoom="3.1052632"
   inkscape:cx="-12.237288"
   inkscape:cy="38"
   inkscape:window-x="5"
   inkscape:window-y="0"
   inkscape:window-maximized="0"
   inkscape:current-layer="svg2" />
	<rect
   style="opacity:0.11061946000000000;fill:url(#radialGradient3773);stroke:none;stroke-width:2;stroke-linecap:round;stroke-linejoin:miter;stroke-miterlimit:4;stroke-opacity:1;stroke-dasharray:none;fill-opacity:1"
   id="rect2987"
   width="58.932205"
   height="58.932205"
   x="8.6949148"
   y="9.6610174"
   rx="4.3694339"
   ry="5.0135851" /><path
   fill="#000000"
   fill-opacity="1"
   stroke-width="0.2"
   stroke-linejoin="round"
   d="M 24.9015,43.0378L 25.0963,43.4298C 26.1685,49.5853 31.5377,54.2651 38,54.2651C 44.4623,54.2651 49.8315,49.5854 50.9037,43.4299L 51.0985,43.0379C 51.0985,40.7643 52.6921,39.2955 54.9656,39.2955C 56.9428,39.2955 58.1863,41.1792 58.5833,43.0379C 57.6384,52.7654 47.9756,61.75 38,61.75C 28.0244,61.75 18.3616,52.7654 17.4167,43.0378C 17.8137,41.1792 19.0572,39.2954 21.0344,39.2954C 23.3079,39.2954 24.9015,40.7643 24.9015,43.0378 Z M 26.7727,20.5833C 29.8731,20.5833 32.3864,23.0966 32.3864,26.197C 32.3864,29.2973 29.8731,31.8106 26.7727,31.8106C 23.6724,31.8106 21.1591,29.2973 21.1591,26.197C 21.1591,23.0966 23.6724,20.5833 26.7727,20.5833 Z M 49.2273,20.5833C 52.3276,20.5833 54.8409,23.0966 54.8409,26.197C 54.8409,29.2973 52.3276,31.8106 49.2273,31.8106C 46.127,31.8106 43.6136,29.2973 43.6136,26.197C 43.6136,23.0966 46.127,20.5833 49.2273,20.5833 Z "
   id="path4"
   style="fill:#8400fa;fill-opacity:1" />
</svg>