<?xml version="1.0" encoding="UTF-8" standalone="no"?>
<!-- Created with Inkscape (http://www.inkscape.org/) -->

<svg
   xmlns:dc="http://purl.org/dc/elements/1.1/"
   xmlns:cc="http://creativecommons.org/ns#"
   xmlns:rdf="http://www.w3.org/1999/02/22-rdf-syntax-ns#"
   xmlns:svg="http://www.w3.org/2000/svg"
   xmlns="http://www.w3.org/2000/svg"
   xmlns:xlink="http://www.w3.org/1999/xlink"
   xmlns:sodipodi="http://sodipodi.sourceforge.net/DTD/sodipodi-0.dtd"
   xmlns:inkscape="http://www.inkscape.org/namespaces/inkscape"
   width="867.55206"
   height="544.20251"
   id="svg2"
   sodipodi:version="0.32"
   inkscape:version="0.48.2 r9819"
   version="1.0"
   sodipodi:docname="1218785028269591944lnasto_Scanner_ln.svg"
   inkscape:output_extension="org.inkscape.output.svg.inkscape">
  <defs
     id="defs4">
    <linearGradient
       inkscape:collect="always"
       id="linearGradient3277">
      <stop
         style="stop-color:#e6e6e6;stop-opacity:1;"
         offset="0"
         id="stop3279" />
      <stop
         style="stop-color:#e6e6e6;stop-opacity:0;"
         offset="1"
         id="stop3281" />
    </linearGradient>
    <linearGradient
       inkscape:collect="always"
       id="linearGradient3264">
      <stop
         style="stop-color:#f2f2f2;stop-opacity:1;"
         offset="0"
         id="stop3266" />
      <stop
         style="stop-color:#f2f2f2;stop-opacity:0;"
         offset="1"
         id="stop3268" />
    </linearGradient>
    <linearGradient
       inkscape:collect="always"
       id="linearGradient3226">
      <stop
         style="stop-color:#f2f2f2;stop-opacity:1;"
         offset="0"
         id="stop3228" />
      <stop
         style="stop-color:#f2f2f2;stop-opacity:0;"
         offset="1"
         id="stop3230" />
    </linearGradient>
    <linearGradient
       inkscape:collect="always"
       xlink:href="#linearGradient3226"
       id="linearGradient3232"
       x1="299.54044"
       y1="380.37036"
       x2="358.70312"
       y2="315.31653"
       gradientUnits="userSpaceOnUse"
       gradientTransform="matrix(2.3292151,0,0,4.082233,-337.30533,-1190.4729)" />
    <linearGradient
       inkscape:collect="always"
       xlink:href="#linearGradient3264"
       id="linearGradient3270"
       x1="309.9794"
       y1="206.12375"
       x2="292.7467"
       y2="340.62375"
       gradientUnits="userSpaceOnUse" />
    <linearGradient
       inkscape:collect="always"
       xlink:href="#linearGradient3277"
       id="linearGradient3283"
       x1="297.30005"
       y1="368.29141"
       x2="278.82358"
       y2="432.6369"
       gradientUnits="userSpaceOnUse"
       gradientTransform="matrix(2.3292151,0,0,4.082233,-337.30533,-1190.4729)" />
    <filter
       inkscape:collect="always"
       id="filter3339"
       x="-0.1211009"
       width="1.2422018"
       y="-0.21192665"
       height="1.4238533">
      <feGaussianBlur
         inkscape:collect="always"
         stdDeviation="0.71805403"
         id="feGaussianBlur3341" />
    </filter>
    <filter
       inkscape:collect="always"
       id="filter3405">
      <feGaussianBlur
         inkscape:collect="always"
         stdDeviation="19.370594"
         id="feGaussianBlur3407" />
    </filter>
  </defs>
  <sodipodi:namedview
     id="base"
     pagecolor="#ffffff"
     bordercolor="#666666"
     borderopacity="1.0"
     gridtolerance="10000"
     guidetolerance="10"
     objecttolerance="10"
     inkscape:pageopacity="0.0"
     inkscape:pageshadow="2"
     inkscape:zoom="0.24071921"
     inkscape:cx="-158.34606"
     inkscape:cy="169.67028"
     inkscape:document-units="px"
     inkscape:current-layer="layer1"
     showgrid="false"
     inkscape:window-width="1280"
     inkscape:window-height="736"
     inkscape:window-x="0"
     inkscape:window-y="26"
     inkscape:window-maximized="0" />
  <metadata
     id="metadata7">
    <rdf:RDF>
      <cc:Work
         rdf:about="">
        <dc:format>image/svg+xml</dc:format>
        <dc:type
           rdf:resource="http://purl.org/dc/dcmitype/StillImage" />
        <dc:title></dc:title>
      </cc:Work>
    </rdf:RDF>
  </metadata>
  <g
     inkscape:label="Layer 1"
     inkscape:groupmode="layer"
     id="layer1"
     transform="translate(-143.38644,-109.6627)">
    <path
       transform="matrix(0.66404699,0,0,1,126.05024,87.57225)"
       style="fill:#000000;fill-opacity:1;stroke:none;filter:url(#filter3405)"
       d="M 435.78425,30.097618 871.56848,194.77185 417.71023,554.24366 40.164447,335.34742 435.78425,30.097618 z"
       id="rect3366"
       sodipodi:nodetypes="ccccc"
       inkscape:connector-curvature="0"
       inkscape:export-filename="C:\Users\Rob\Downloads\rect3343.png"
       inkscape:export-xdpi="7.04"
       inkscape:export-ydpi="7.04" />
    <path
       style="fill:#cccccc;fill-opacity:1;stroke:none"
       d="M 465.02081,109.6627 706.1892,253.99143 410.90496,602.44225 177.97158,408.62938 465.02081,109.6627 z"
       id="rect2433"
       sodipodi:nodetypes="ccccc"
       inkscape:connector-curvature="0"
       inkscape:export-filename="C:\Users\Rob\Downloads\rect3343.png"
       inkscape:export-xdpi="7.04"
       inkscape:export-ydpi="7.04" />
    <path
       style="fill:#4d4d4d;fill-opacity:1;stroke:none"
       d="M 473.98754,126.00906 221.2677,389.18552 416.48505,551.58185 675.1735,246.43494 473.98754,126.00906 z"
       id="path2438"
       sodipodi:nodetypes="ccccc"
       inkscape:connector-curvature="0"
       inkscape:export-filename="C:\Users\Rob\Downloads\rect3343.png"
       inkscape:export-xdpi="7.04"
       inkscape:export-ydpi="7.04" />
    <path
       style="fill:#000000;fill-opacity:1;stroke:none"
       d="m 177.97158,408.56485 232.9516,193.89392 0,47.34982 -230.04301,-197.99165 -2.90859,-43.25209 z"
       id="rect2441"
       sodipodi:nodetypes="ccccc"
       inkscape:connector-curvature="0"
       inkscape:export-filename="C:\Users\Rob\Downloads\rect3343.png"
       inkscape:export-xdpi="7.04"
       inkscape:export-ydpi="7.04" />
    <path
       style="fill:#000000;fill-opacity:1;stroke:none"
       d="m 410.90496,602.4604 295.15188,-348.26281 -10.48188,41.23545 -284.67041,354.38612 4.1e-4,-47.35876 z"
       id="rect2444"
       sodipodi:nodetypes="ccccc"
       inkscape:connector-curvature="0"
       inkscape:export-filename="C:\Users\Rob\Downloads\rect3343.png"
       inkscape:export-xdpi="7.04"
       inkscape:export-ydpi="7.04" />
    <path
       sodipodi:type="inkscape:offset"
       inkscape:radius="-1.7193834"
       inkscape:original="M 348.3125 322.5 L 239.8125 386.96875 L 323.625 426.75 L 434.6875 352 L 348.3125 322.5 z "
       style="fill:#008080;fill-opacity:1;stroke:none"
       id="path2449"
       d="m 348.5,324.375 -105.03125,62.40625 80,37.96875 107.375,-72.25 L 348.5,324.375 z"
       transform="matrix(2.3292151,0,0,4.082233,-337.86782,-1188.5828)"
       inkscape:export-filename="C:\Users\Rob\Downloads\rect3343.png"
       inkscape:export-xdpi="7.04"
       inkscape:export-ydpi="7.04" />
    <path
       style="fill:url(#linearGradient3232);fill-opacity:1;stroke:none"
       d="M 473.84383,135.61503 330.74268,284.61651 c 44.42045,-4.34023 91.93631,-4.09737 129.92653,7.90933 37.26801,11.77842 81.97218,32.5607 123.52118,53.96203 l 81.44974,-96.06005 -191.7963,-114.81279 z"
       id="path2451"
       inkscape:connector-curvature="0"
       inkscape:export-filename="C:\Users\Rob\Downloads\rect3343.png"
       inkscape:export-xdpi="7.04"
       inkscape:export-ydpi="7.04" />
    <path
       style="fill:#000000;fill-opacity:1;stroke:none"
       d="M 144.55104,122.42299 464.81812,110.17627 700.72538,255.84736 440.18174,293.79374 144.55104,122.42299 z"
       id="rect3234"
       sodipodi:nodetypes="ccccc"
       inkscape:connector-curvature="0"
       inkscape:export-filename="C:\Users\Rob\Downloads\rect3343.png"
       inkscape:export-xdpi="7.04"
       inkscape:export-ydpi="7.04" />
    <path
       style="fill:#ffffff;fill-opacity:1;stroke:none"
       d="M 143.38644,110.42391 464.81812,114.50614 701.23346,253.30209 440.36137,288.00106 143.38644,110.42391 z"
       id="path3244"
       sodipodi:nodetypes="ccccc"
       inkscape:connector-curvature="0"
       inkscape:export-filename="C:\Users\Rob\Downloads\rect3343.png"
       inkscape:export-xdpi="7.04"
       inkscape:export-ydpi="7.04" />
    <path
       sodipodi:nodetypes="ccccc"
       id="path3237"
       d="M 145.71564,114.25852 464.81811,110.17628 701.23344,248.97221 442.69057,281.63008 145.71564,114.25852 z"
       style="fill:#000000;fill-opacity:1;stroke:none"
       inkscape:connector-curvature="0"
       inkscape:export-filename="C:\Users\Rob\Downloads\rect3343.png"
       inkscape:export-xdpi="7.04"
       inkscape:export-ydpi="7.04" />
    <path
       sodipodi:type="inkscape:offset"
       inkscape:radius="1.75"
       inkscape:original="M 210.25 321.9375 L 227.03125 327.5625 C 248.9245 323.04974 279.19988 320.85486 316.0625 328.5625 C 342.62392 334.11625 369.32106 341.7125 393.1875 349.3125 L 425.5 349.3125 L 343.78125 321.9375 L 210.25 321.9375 z "
       style="fill:url(#linearGradient3270);fill-opacity:1;stroke:none"
       id="path3262"
       d="m 210.0625,320.1875 a 1.750175,1.750175 0 0 0 -0.375,3.40625 l 16.78125,5.625 a 1.750175,1.750175 0 0 0 0.90625,0.0625 c 21.69071,-4.47101 51.73417,-6.65473 88.34375,1 26.47845,5.5364 53.10934,13.09969 76.9375,20.6875 a 1.750175,1.750175 0 0 0 0.53125,0.0937 l 32.3125,0 a 1.750175,1.750175 0 0 0 0.5625,-3.40625 l -81.71875,-27.375 a 1.750175,1.750175 0 0 0 -0.5625,-0.0937 l -133.53125,0 a 1.750175,1.750175 0 0 0 -0.1875,0 z"
       transform="matrix(2.3292151,0,0,4.082233,-337.30533,-1190.4729)"
       inkscape:export-filename="C:\Users\Rob\Downloads\rect3343.png"
       inkscape:export-xdpi="7.04"
       inkscape:export-ydpi="7.04" />
    <path
       style="fill:url(#linearGradient3283);fill-opacity:1;stroke:none"
       d="m 177.96072,410.52788 2.76595,41.58774 230.22835,197.73318 0,-35.33682 C 380.45748,595.61993 336.12363,566.19151 288.16171,527.76452 235.60249,485.65416 198.81055,440.00705 177.96072,410.52788 z"
       id="path3272"
       sodipodi:nodetypes="ccccsc"
       inkscape:connector-curvature="0"
       inkscape:export-filename="C:\Users\Rob\Downloads\rect3343.png"
       inkscape:export-xdpi="7.04"
       inkscape:export-ydpi="7.04" />
    <path
       sodipodi:type="arc"
       style="fill:#ffffff;fill-opacity:1;stroke:none"
       id="path3289"
       sodipodi:cx="294.50998"
       sodipodi:cy="475.04034"
       sodipodi:rx="24.395184"
       sodipodi:ry="12.374369"
       d="m 318.90516,475.04034 a 24.395184,12.374369 0 1 1 -48.79036,0 24.395184,12.374369 0 1 1 48.79036,0 z"
       transform="matrix(0.71852839,0,0,1.0803254,57.085448,-57.180164)"
       inkscape:export-filename="C:\Users\Rob\Downloads\rect3343.png"
       inkscape:export-xdpi="7.04"
       inkscape:export-ydpi="7.04" />
    <path
       d="m 318.90516,475.04034 a 24.395184,12.374369 0 1 1 -48.79036,0 24.395184,12.374369 0 1 1 48.79036,0 z"
       sodipodi:ry="12.374369"
       sodipodi:rx="24.395184"
       sodipodi:cy="475.04034"
       sodipodi:cx="294.50998"
       id="path3291"
       style="fill:#000000;fill-opacity:1;stroke:none"
       sodipodi:type="arc"
       transform="matrix(0.71852839,0,0,1.0803254,56.640882,-59.949322)"
       inkscape:export-filename="C:\Users\Rob\Downloads\rect3343.png"
       inkscape:export-xdpi="7.04"
       inkscape:export-ydpi="7.04" />
    <path
       d="m 318.90516,475.04034 a 24.395184,12.374369 0 1 1 -48.79036,0 24.395184,12.374369 0 1 1 48.79036,0 z"
       sodipodi:ry="12.374369"
       sodipodi:rx="24.395184"
       sodipodi:cy="475.04034"
       sodipodi:cx="294.50998"
       id="path3295"
       style="fill:#00ffff;fill-opacity:1;stroke:none"
       sodipodi:type="arc"
       transform="matrix(0.39310798,0,0,0.6250454,278.48337,264.2287)"
       inkscape:export-filename="C:\Users\Rob\Downloads\rect3343.png"
       inkscape:export-xdpi="7.04"
       inkscape:export-ydpi="7.04" />
    <path
       sodipodi:type="arc"
       style="fill:#f9f9f9;fill-opacity:1;stroke:none;filter:url(#filter3339)"
       id="path3297"
       sodipodi:cx="290.97443"
       sodipodi:cy="473.27258"
       sodipodi:rx="7.1152635"
       sodipodi:ry="4.0658636"
       d="m 298.08969,473.27258 a 7.1152635,4.0658636 0 1 1 -14.23053,0 7.1152635,4.0658636 0 1 1 14.23053,0 z"
       transform="matrix(0.71852839,0,0,1.0803254,59.117754,-58.707975)"
       inkscape:export-filename="C:\Users\Rob\Downloads\rect3343.png"
       inkscape:export-xdpi="7.04"
       inkscape:export-ydpi="7.04" />
    <path
       style="fill:#000000;fill-opacity:1;stroke:none"
       d="m 254.99723,365.67222 182.0014,154.41594 -21.40303,25.34846 -184.20147,-153.26537 23.6031,-26.49903 z"
       id="rect3343"
       sodipodi:nodetypes="ccccc"
       inkscape:connector-curvature="0"
       inkscape:export-xdpi="7.04"
       inkscape:export-ydpi="7.04" />
  </g>
</svg>
